<svg xmlns="http://www.w3.org/2000/svg" viewBox="0 0 75.06 75.62"><defs><style>.cls-1{fill:#fff;}.cls-1,.cls-2{fill-rule:evenodd;}.cls-2{fill:blue;}</style></defs><title>photo IconAsset 9</title><g id="Layer_2" data-name="Layer 2"><g id="Layer_1-2" data-name="Layer 1"><path class="cls-1" d="M37.2,0A37.81,37.81,0,1,1,0,38.13,37.67,37.67,0,0,1,37.2,0Z"/><path class="cls-2" d="M27.28,27.93a1.41,1.41,0,0,0-1.42-1.41H24.4A1.42,1.42,0,0,0,23,28v.53l4.26,0v-.53Zm22.59.84a3,3,0,0,1-1.31-1.11l-.32-.54a3.25,3.25,0,0,0-2.52-1.41l-5.79.05a3.42,3.42,0,0,0-2.55,1.41l-.41.63a3.26,3.26,0,0,1-1.33,1.09l-3,0H31.21L25,29,22.9,29a2.09,2.09,0,0,0-2.06,2.12L21,47.87a2.08,2.08,0,0,0,2.09,2.07l29.1-.25a2.09,2.09,0,0,0,2.07-2.11L54.1,30.84A2.1,2.1,0,0,0,52,28.76ZM42.74,39.31a5.2,5.2,0,1,1-5.25-5.19,5.22,5.22,0,0,1,5.25,5.19Zm2.07,0a7.28,7.28,0,1,0-7.21,7.39,7.31,7.31,0,0,0,7.21-7.39Zm5.13-8.41-4.16,0,0,2.09L50,33Z"/></g></g></svg>