<svg xmlns="http://www.w3.org/2000/svg" viewBox="0 0 51.14 51.14"><defs><style>.cls-1{fill:#fff;}</style></defs><title>emailAsset 12</title><g id="Layer_2" data-name="Layer 2"><g id="Layer_1-2" data-name="Layer 1"><path class="cls-1" d="M25.57,0A25.57,25.57,0,1,0,51.14,25.57,25.57,25.57,0,0,0,25.57,0ZM13.94,16.89H37.2a1.9,1.9,0,0,1,1.33.53l-13,11.11-13-11.11A2,2,0,0,1,13.94,16.89ZM12,18.6l9.38,8.14-9.38,8ZM37.2,36.29H13.94a1.94,1.94,0,0,1-1.34-.53l9.61-8.23,3.36,2.95,3.36-2.95,9.6,8.23A1.92,1.92,0,0,1,37.2,36.29Zm1.95-1.58-9.38-8,9.38-8.15Z"/></g></g></svg>