<svg xmlns="http://www.w3.org/2000/svg" viewBox="0 0 24.66 35.8"><defs><style>.cls-1{fill:#fff;}</style></defs><title>Location PinAsset 18</title><g id="Layer_2" data-name="Layer 2"><g id="Layer_1-2" data-name="Layer 1"><path class="cls-1" d="M24.08,8.91a11.27,11.27,0,0,0-.58-1.43A12,12,0,0,0,12.16,0,12.05,12.05,0,0,0,0,11.11v1.53c0,.06,0,.64.05.92.45,3.56,3.26,7.35,5.36,10.91C7.67,28.29,10,32,12.34,35.8c1.43-2.45,2.86-4.93,4.26-7.32.38-.7.83-1.4,1.21-2.07.25-.45.74-.89,1-1.31C21,21,24.66,16.8,24.66,12.7V11a12.7,12.7,0,0,0-.58-2.1ZM12.26,16.58a4.37,4.37,0,0,1-4.19-3A4.15,4.15,0,0,1,8,12.47v-1c0-2.8,2.38-4.07,4.45-4.07A4.51,4.51,0,0,1,16.92,12a4.62,4.62,0,0,1-4.65,4.58Zm0,0"/></g></g></svg>