<svg xmlns="http://www.w3.org/2000/svg" viewBox="0 0 120.1 54.74"><defs><style>.cls-1{fill:#fff;}</style></defs><title>logoAsset 7</title><g id="Layer_2" data-name="Layer 2"><g id="Layer_1-2" data-name="Layer 1"><path class="cls-1" d="M49.89,4.85v45h-45v-45h45M54.74,0H0V54.74H54.74V0Z"/><line class="cls-1" x1="13.03" y1="27.37" x2="41.71" y2="27.37"/><rect class="cls-1" x="13.03" y="25.75" width="28.68" height="3.23"/><path class="cls-1" d="M62.71,3h3.58V15.53H62.71Z"/><path class="cls-1" d="M67.54,18.94V15.83h8.4v3.11Z"/><path class="cls-1" d="M70,33.88l-.43-1.61H65.91l-.43,1.61H61.64l4-12.51h4.18l4,12.51Zm-3.27-4.47h2.07l-1-3.84Z"/><path class="cls-1" d="M87.56,21.36V33.88H84v-6.1L81.2,32.46h-.32l-2.79-4.68v6.1H74.51V21.36h3.58L81,26.46l3-5.1Z"/><path class="cls-1" d="M65.8,52.22l-4-12.51h3.93l2.06,8,2.06-8h3.93l-4,12.51Z"/><path class="cls-1" d="M84.87,50.62a6.83,6.83,0,0,1-9.42,0,6.6,6.6,0,0,1,0-9.31,6.83,6.83,0,0,1,9.42,0,6.6,6.6,0,0,1,0,9.31ZM78,48.14A3.15,3.15,0,1,0,77.1,46,3,3,0,0,0,78,48.14Z"/><path class="cls-1" d="M94.23,52.51a6.54,6.54,0,1,1,0-13.09,6.43,6.43,0,0,1,3.2.82,6,6,0,0,1,2.29,2.22l-3.11,1.79a2.25,2.25,0,0,0-.95-1,2.9,2.9,0,0,0-1.43-.36,2.84,2.84,0,0,0-2.15.86,3.3,3.3,0,0,0,0,4.36,2.84,2.84,0,0,0,2.15.86,2.88,2.88,0,0,0,1.44-.36,2.23,2.23,0,0,0,.94-1l3.11,1.79a6,6,0,0,1-2.29,2.23A6.44,6.44,0,0,1,94.23,52.51Z"/><path class="cls-1" d="M107.85,52.22l-.43-1.61h-3.61l-.43,1.61H99.54l4-12.51h4.18l4,12.51Zm-3.27-4.47h2.07l-1-3.84Z"/><path class="cls-1" d="M116,48.75h4.11v3.47h-7.69V39.71H116Z"/></g></g></svg>