<svg xmlns="http://www.w3.org/2000/svg" viewBox="0 0 32.25 32.25"><defs><style>.cls-1{fill:#fff;}</style></defs><title>Phone numberAsset 17</title><g id="Layer_2" data-name="Layer 2"><g id="Layer_1-2" data-name="Layer 1"><path class="cls-1" d="M16.12,2A14.11,14.11,0,1,1,2,16.12,14.12,14.12,0,0,1,16.12,2m0-2A16.12,16.12,0,1,0,32.25,16.12,16.12,16.12,0,0,0,16.12,0Zm9,21.51L25,21.24a2.55,2.55,0,0,0-1.56-1.47l-2.38-.65a2.33,2.33,0,0,0-2,.54l-.86.86a9.16,9.16,0,0,1-6.44-6.44l.86-.86a2.34,2.34,0,0,0,.53-2l-.65-2.38A2.55,2.55,0,0,0,11,7.23l-.27-.09a2.16,2.16,0,0,0-2,.48L7.43,8.9a2.4,2.4,0,0,0-.38.89,15.23,15.23,0,0,0,15.36,15.4,2.38,2.38,0,0,0,.93-.37l1.29-1.29a2.16,2.16,0,0,0,.47-2Zm0,0"/></g></g></svg>